<svg xmlns="http://www.w3.org/2000/svg" viewBox="0 0 492.57 492.57"><defs><style>.cls-1{fill:#64ffff;}.cls-2{fill:#2a3d66;}</style></defs><g id="Layer_2" data-name="Layer 2"><g id="Layer_1-2" data-name="Layer 1"><rect class="cls-1" y="41.09" width="492.57" height="407.92"/><path class="cls-2" d="M440.2,312.89c13.76,12.53,26.29,24.8,37.63,36.53a8.58,8.58,0,0,0,14.74-6V44.63A44.63,44.63,0,0,0,447.94,0H44.63A44.63,44.63,0,0,0,0,44.63V351.74A8.58,8.58,0,0,0,13.09,359a671.88,671.88,0,0,0,135.58-109.8c1.19-1.25,2.36-2.49,3.52-3.74Q162,235,171,224.55q6.75-7.87,13-15.63c11.53-14.28,21.86-28.25,31.08-41.68,9-13.05,16.92-25.58,23.92-37.37a8.56,8.56,0,0,1,7.37-4.18H312.9a8.58,8.58,0,0,1,6.59,14.08C305.06,157,288.66,175,270.11,193.32c-14.14,14-29.52,28.08-46.24,42.11-1.57,1.32-3.17,2.65-4.76,4q-5.94,4.93-11.91,9.63-15.91,12.64-31.73,23.89A787.13,787.13,0,0,1,0,366.88H0v81.06a44.63,44.63,0,0,0,44.63,44.63H447.94a44.63,44.63,0,0,0,44.63-44.63V375.46a8.58,8.58,0,0,0-8.58-8.58H370.59a8.6,8.6,0,0,1-6.5-3A828.67,828.67,0,0,0,303,300.48a8.58,8.58,0,0,1,1.74-13.78c20.49-11.31,38.47-22.38,53.78-32.49a8.58,8.58,0,0,1,9.78.22A829.19,829.19,0,0,1,440.2,312.89Zm-121,54H244.8a8.6,8.6,0,0,1-7.4-4.23c-5.22-8.81-10.43-17.19-15.54-25.13A8.57,8.57,0,0,1,225.77,325c15.26-6.42,29.7-13,43.32-19.71a8.57,8.57,0,0,1,9.51,1.36c15.36,13.86,31.09,29.09,46.86,45.75A8.59,8.59,0,0,1,319.24,366.88Zm-36-84.3C276.77,286,270,289.42,263,292.87c-16.58,8.14-34.8,16.39-54.6,24.38a828.41,828.41,0,0,1-96.68,32.32l-.84.23c-9.88,2.62-15.24-11.17-6.18-15.9,21.07-11,43-23.65,65.26-38.23q7.82-5.1,15.33-10.28Q204,272.47,221,259.2q8.67-6.7,16.87-13.46c17.7-14.55,33.88-29.15,48.62-43.52A786.94,786.94,0,0,0,353,128.9a8.58,8.58,0,0,1,6.7-3.21h103a8.58,8.58,0,0,1,6.32,14.39,705.37,705.37,0,0,1-95.71,86.34c-4.12,3.07-11.62,8.62-22.32,15.82A730.68,730.68,0,0,1,283.21,282.58Z"/></g></g></svg>