<svg xmlns="http://www.w3.org/2000/svg" viewBox="0 0 328.31 51.36"><defs><style>.cls-1{fill:#2a3d66;}.cls-2{fill:#f66f61;}</style></defs><g id="Layer_2" data-name="Layer 2"><g id="Layer_1-2" data-name="Layer 1"><path class="cls-1" d="M58.4,39.41c-3.8,1.9-7.93,3.78-12.35,5.58,1.64,2.48,3.33,5.17,5,8.08H72.16A176.31,176.31,0,0,0,58.4,39.41Z" transform="translate(0 -1.71)"/><path class="cls-2" d="M60.31,35.12a156.64,156.64,0,0,0,14.44-8.59C77,25,78.62,23.82,79.5,23.16A150.69,150.69,0,0,0,102.64,1.71H75.71A168.56,168.56,0,0,1,61,18c-3.14,3.06-6.59,6.17-10.36,9.26q-1.74,1.44-3.59,2.87c-2.42,1.88-5,3.75-7.62,5.58q-1.61,1.1-3.27,2.19A165.94,165.94,0,0,1,7.27,53c4.91-.82,10.48-2,16.51-3.57A177.1,177.1,0,0,0,44.37,42.5c4.22-1.7,8.1-3.45,11.63-5.19C57.5,36.58,58.94,35.84,60.31,35.12Z" transform="translate(0 -1.71)"/><path class="cls-1" d="M93.74,41.58a175.74,175.74,0,0,0-16.35-13.2,167.93,167.93,0,0,1-14.73,8.83A177,177,0,0,1,78.08,53.07h26.81v-.39C101.71,49.22,98,45.46,93.74,41.58Z" transform="translate(0 -1.71)"/><path class="cls-1" d="M44.12,28c.85-.67,1.69-1.35,2.54-2.05l1-.85q5.34-4.48,9.85-9a166,166,0,0,0,13-14.4H51.42c-1.62,2.77-3.48,5.74-5.62,8.85-2,2.86-4.16,5.83-6.61,8.87q-1.34,1.66-2.78,3.33-1.9,2.22-4,4.47l-.75.79A143.15,143.15,0,0,1,0,53.07H0a167.64,167.64,0,0,0,37.36-20C39.61,31.47,41.86,29.77,44.12,28Z" transform="translate(0 -1.71)"/><path class="cls-1" d="M133.92,42.51h-7.64V8.4h7.64Zm21.23,0h-9l-6.36-9.21h-9.37V26.48h9.32L146.24,17h9.07L146,29.33Z" transform="translate(0 -1.71)"/><path class="cls-1" d="M165,43a10.26,10.26,0,0,1-6.47-1.83,6,6,0,0,1-2.34-5,5.85,5.85,0,0,1,.92-3.31,6.4,6.4,0,0,1,2.75-2.22,15.24,15.24,0,0,1,4.58-1.14l11.45-1.17v4.38l-9.36,1.07a4.28,4.28,0,0,0-2,.53,1.53,1.53,0,0,0-.63,1.35,1.58,1.58,0,0,0,.81,1.48,5.38,5.38,0,0,0,2.5.45,16.88,16.88,0,0,0,4.53-.5,5.31,5.31,0,0,0,2.72-1.66,4.69,4.69,0,0,0,1-3.08l.71-.05v4.33h-.71a8.19,8.19,0,0,1-3.49,4.66A12.55,12.55,0,0,1,165,43Zm17.92-.51h-7.13V36.45l-.4-.1V27.44c0-1.66-.42-2.78-1.25-3.36a8,8,0,0,0-4.3-.86,7.74,7.74,0,0,0-4.18.86,3.44,3.44,0,0,0-1.27,3.06v.2h-7.69v-.15a9.55,9.55,0,0,1,1.68-5.58,11,11,0,0,1,4.76-3.76,18,18,0,0,1,7.26-1.35,15.81,15.81,0,0,1,7.05,1.37,9.22,9.22,0,0,1,4.12,3.84,12,12,0,0,1,1.35,5.83Z" transform="translate(0 -1.71)"/><path class="cls-1" d="M194.41,42.51h-7.64V17h7.08V25l.56.25Zm19.45,0h-7.64V29.17c0-2.1-.43-3.59-1.27-4.48s-2.38-1.32-4.59-1.32-3.92.49-4.73,1.48-1.22,2.58-1.22,4.78h-1l-.56-4.89h1.37a12.61,12.61,0,0,1,1.38-4,8.14,8.14,0,0,1,3-3.06,10.08,10.08,0,0,1,5.2-1.19,9.75,9.75,0,0,1,5.42,1.37,8.33,8.33,0,0,1,3.13,3.67,12.34,12.34,0,0,1,1,5.09h.46Zm19.44,0h-7.63V29.17c0-2.1-.43-3.59-1.28-4.48s-2.37-1.32-4.58-1.32-3.88.49-4.71,1.48-1.24,2.58-1.24,4.78h-1l-.61-4.78h1.47a12,12,0,0,1,1.35-4.08,8.14,8.14,0,0,1,3.11-3.08,10.58,10.58,0,0,1,5.32-1.19A10.33,10.33,0,0,1,229,17.82a8.26,8.26,0,0,1,3.24,3.61,12.2,12.2,0,0,1,1.06,5.2Z" transform="translate(0 -1.71)"/><path class="cls-1" d="M244.81,51.17h-7.64V17h7.08v7.58l.56.66ZM255.2,43a10.62,10.62,0,0,1-6.9-2,8.87,8.87,0,0,1-3.13-5.37h-1.33v-5.5h1a6.18,6.18,0,0,0,.87,3.46,4.65,4.65,0,0,0,2.52,1.89,12.78,12.78,0,0,0,4,.56,11.66,11.66,0,0,0,4.08-.61,4.4,4.4,0,0,0,2.34-2,7.56,7.56,0,0,0,.76-3.67,7.64,7.64,0,0,0-.76-3.74,4.3,4.3,0,0,0-2.34-1.93,11.79,11.79,0,0,0-4-.59,9.38,9.38,0,0,0-5.6,1.4q-1.87,1.41-1.88,4.81h-1L243.28,24h1.48a8.57,8.57,0,0,1,3.18-5.57,11.31,11.31,0,0,1,7-1.91,12.71,12.71,0,0,1,6.65,1.63,10.54,10.54,0,0,1,4.15,4.6,16.22,16.22,0,0,1,1.42,7.05,16.24,16.24,0,0,1-1.4,7,10.43,10.43,0,0,1-4.07,4.6A12.22,12.22,0,0,1,255.2,43Z" transform="translate(0 -1.71)"/><path class="cls-1" d="M280.86,43a11.8,11.8,0,0,1-5.93-1.35A8.57,8.57,0,0,1,271.41,38a11.38,11.38,0,0,1-1.14-5.14V17h7.63V30.34a5.92,5.92,0,0,0,1.48,4.46c1,.93,2.68,1.4,5.09,1.4s4.27-.5,5.27-1.5,1.5-2.59,1.5-4.76l1-.05.56,4.83h-1.42a10.2,10.2,0,0,1-1.51,4,9,9,0,0,1-3.41,3.08A11.69,11.69,0,0,1,280.86,43Zm18-.51h-7.13V34.62l-.51-.25V17h7.64Z" transform="translate(0 -1.71)"/><path class="cls-1" d="M315.68,43q-6.4,0-9.88-2.42a7.87,7.87,0,0,1-3.46-6.84V33.6H310v.46a2.3,2.3,0,0,0,1.25,2.32,11.86,11.86,0,0,0,4.5.58,9.88,9.88,0,0,0,4-.53,1.77,1.77,0,0,0,1-1.66,1.58,1.58,0,0,0-.76-1.5,9.73,9.73,0,0,0-3-.74l-7.18-.86A10.74,10.74,0,0,1,304,29.53a6.14,6.14,0,0,1-2.07-5,6.73,6.73,0,0,1,1.33-4.05,9,9,0,0,1,4.1-2.9,19.73,19.73,0,0,1,7.15-1.09,21.15,21.15,0,0,1,7.1,1A9.19,9.19,0,0,1,326,20.67a8.53,8.53,0,0,1,1.52,5.19V26h-7.63v-.31a3.2,3.2,0,0,0-.44-1.75,2.75,2.75,0,0,0-1.68-1.05,13.64,13.64,0,0,0-3.59-.36,8.86,8.86,0,0,0-3.81.54,1.85,1.85,0,0,0-1,1.76,1.6,1.6,0,0,0,.79,1.45,10.07,10.07,0,0,0,3.28.84l5.45.66q5.08.56,7.23,2.34a6.06,6.06,0,0,1,2.14,4.94,6.19,6.19,0,0,1-1.53,4.17A9.88,9.88,0,0,1,322.45,42,20.37,20.37,0,0,1,315.68,43Z" transform="translate(0 -1.71)"/></g></g></svg>